<?xml version="1.0" standalone="no"?>
<!DOCTYPE svg PUBLIC "-//W3C//DTD SVG 20010904//EN"
 "http://www.w3.org/TR/2001/REC-SVG-20010904/DTD/svg10.dtd">
<svg version="1.0" xmlns="http://www.w3.org/2000/svg"
 width="1042.000000pt" height="1092.000000pt" viewBox="0 0 1042.000000 1092.000000"
 preserveAspectRatio="xMidYMid meet">

<g transform="translate(0.000000,1092.000000) scale(0.100000,-0.100000)"
fill="#000000" stroke="none">
<path d="M5391 7786 c-12 -18 -21 -38 -21 -44 0 -6 -3 -12 -7 -14 -5 -1 -19
-23 -32 -48 -24 -46 -42 -78 -131 -240 -29 -52 -66 -120 -82 -150 -16 -30 -35
-62 -43 -70 -7 -8 -16 -26 -20 -40 -4 -14 -10 -27 -14 -30 -6 -5 -16 -22 -81
-145 -62 -117 -75 -140 -80 -145 -6 -6 -34 -55 -52 -90 -7 -14 -34 -63 -61
-110 -27 -46 -55 -98 -63 -115 -8 -16 -23 -43 -33 -60 -9 -16 -29 -52 -44 -80
-15 -27 -45 -81 -67 -120 -21 -38 -55 -101 -76 -140 -20 -38 -39 -72 -43 -75
-3 -3 -17 -27 -30 -55 -14 -27 -33 -62 -43 -77 -10 -14 -32 -53 -49 -85 -62
-120 -111 -208 -117 -213 -17 -13 -85 -175 -107 -255 -9 -33 -27 -96 -41 -140
-13 -44 -26 -93 -30 -110 -3 -16 -9 -39 -14 -50 -5 -11 -13 -40 -19 -65 -5
-25 -17 -65 -25 -90 -9 -25 -23 -72 -32 -105 -8 -33 -27 -95 -41 -137 -33
-103 -29 -124 15 -78 17 19 32 40 32 47 0 6 8 18 18 25 9 7 30 31 45 53 48 70
71 100 100 130 15 17 44 55 64 85 20 30 39 57 43 60 3 3 16 21 27 40 12 20 33
46 47 59 14 14 26 29 26 36 0 6 8 18 18 27 29 28 76 88 92 118 15 28 53 77
159 210 34 41 67 86 73 100 7 13 22 34 33 46 32 36 175 225 213 280 12 19 27
34 32 34 6 0 10 5 10 10 0 6 19 36 43 67 23 31 55 75 71 97 15 23 39 52 52 67
13 14 24 30 24 35 0 6 12 22 28 37 15 14 43 49 62 77 19 29 59 82 87 118 29
37 58 79 64 94 6 15 18 30 28 33 10 3 24 20 33 38 9 17 34 53 57 79 22 25 41
50 41 55 0 4 12 19 26 33 15 13 53 64 86 113 33 49 76 107 95 128 43 47 41 72
-12 159 -19 32 -35 61 -35 65 0 8 -84 188 -101 215 -5 8 -22 44 -39 80 -17 36
-35 72 -40 80 -12 21 -55 109 -71 148 -8 17 -17 32 -21 32 -3 0 -16 -15 -27
-34z"/>
<path d="M5983 5358 c24 -436 47 -728 58 -728 4 0 48 -41 96 -92 205 -215
1038 -1061 1095 -1113 12 -11 29 -28 37 -38 33 -38 155 -156 158 -153 2 2 -14
30 -36 62 -21 33 -75 115 -119 184 -44 69 -94 145 -111 170 -17 25 -62 92
-100 150 -37 58 -90 138 -117 179 -27 40 -53 81 -59 90 -5 9 -24 36 -40 61
-17 25 -46 70 -64 100 -19 30 -37 57 -41 60 -4 3 -13 16 -19 29 -14 25 -152
239 -201 311 -80 116 -100 147 -112 170 -14 28 -17 31 -53 76 -14 18 -25 36
-25 41 0 6 -9 20 -20 33 -11 13 -20 29 -20 37 0 7 -4 13 -10 13 -5 0 -19 17
-30 38 -26 48 -43 76 -51 82 -4 3 -21 30 -40 60 -18 30 -43 68 -56 83 -13 16
-23 35 -23 42 0 7 -3 15 -7 17 -11 5 -73 97 -73 108 0 6 -5 10 -11 10 -7 0 -9
-28 -6 -82z"/>
<path d="M5868 4603 c-27 -2 -48 -8 -48 -12 0 -5 -19 -11 -42 -14 -24 -4 -63
-11 -88 -17 -25 -6 -92 -19 -150 -30 -58 -10 -157 -30 -220 -45 -63 -14 -144
-31 -180 -36 -36 -5 -78 -13 -95 -18 -16 -5 -57 -14 -90 -21 -33 -6 -76 -16
-95 -21 -19 -5 -73 -15 -120 -24 -81 -14 -137 -26 -225 -47 -22 -5 -80 -16
-129 -24 -49 -8 -125 -23 -170 -34 -104 -24 -204 -45 -286 -60 -36 -6 -83 -16
-105 -21 -64 -15 -133 -29 -240 -49 -231 -43 -256 -53 -281 -107 -10 -21 -28
-54 -40 -73 -12 -20 -36 -62 -54 -95 -18 -33 -50 -91 -71 -130 -21 -38 -47
-86 -56 -105 -10 -19 -20 -37 -23 -40 -3 -3 -13 -21 -23 -40 -10 -19 -29 -55
-43 -80 -14 -25 -40 -72 -57 -105 -18 -33 -35 -62 -38 -65 -7 -6 -49 -95 -49
-105 0 -8 53 6 70 19 8 7 44 24 80 40 36 15 86 39 113 52 26 13 53 24 61 24 7
0 19 6 25 14 7 8 27 17 46 20 19 4 35 11 35 16 0 5 17 14 38 21 20 7 46 18 57
24 11 7 33 16 50 20 16 3 32 10 35 14 7 9 109 58 140 67 14 4 27 10 30 14 6 8
87 46 120 55 14 4 33 16 43 26 10 11 26 19 37 19 10 0 70 24 132 54 63 30 126
58 140 61 15 4 34 15 44 26 9 10 25 19 36 19 10 0 35 9 55 20 21 11 45 20 54
20 9 0 24 9 34 20 10 11 24 20 32 20 8 0 35 10 61 21 25 12 51 22 58 23 6 1
19 9 28 19 10 9 22 17 28 17 13 0 105 42 328 149 47 23 91 41 97 41 6 0 49 18
95 41 46 22 108 52 138 66 30 14 67 31 82 39 14 8 32 14 40 14 14 1 120 51
141 68 7 5 25 12 41 16 16 4 41 16 54 27 14 10 32 19 41 19 9 0 25 7 35 15 11
8 26 15 35 15 8 0 22 6 30 13 9 7 39 23 66 34 28 12 91 40 140 62 96 43 96 43
-27 34z"/>
</g>
</svg>
